<svg xmlns="http://www.w3.org/2000/svg" xmlns:xlink="http://www.w3.org/1999/xlink" x="0px" y="0px" viewBox="0 0 44.5 23.6"
	 style="enable-background:new 0 0 44.5 23.6; fill: #232323;" xml:space="preserve">
	<path d="M17.9,20.3c0.2,0,0.3,0.1,0.4,0.1c0.4-0.2-0.7,0-0.2-0.2c-0.2,0-0.3,0-0.4,0.1l0.2,0.2
		C18.3,20.4,17.7,20.4,17.9,20.3z"/>
	<path d="M23.5,20.4c0.1,0,0.1,0,0.2,0C23.6,20.4,23.6,20.4,23.5,20.4z"/>
	<path d="M41,23.3c0.1-0.2-0.1,0-0.4-0.1l-0.3,0.1C40.6,23.4,40.8,23.3,41,23.3z"/>
	<path d="M17.7,20.3C17.7,20.3,17.7,20.3,17.7,20.3C17.7,20.3,17.7,20.3,17.7,20.3L17.7,20.3z"/>
		<path d="M44.4,0.2c-0.3,0-0.7,0-1,0.1l0.5,0.2c-0.2,0.1-0.6,0-0.7,0c0.1-0.1-0.2-0.3,0-0.3c-1.2,0.4-0.9-0.2-1.9,0
			C41.1,0.4,39.9,0.7,39,1l-0.4-0.1c0.6,0,0-0.3,0.7-0.2c-0.6-0.1-1.1,0.1-1.7,0c0.1,0.1,0.1,0.2-0.1,0.2c-0.3,0-0.4-0.2-0.8-0.2
			l0.4-0.1c-0.3-0.1-0.5,0-0.7,0.1c-0.1-0.1-0.7-0.2-0.6-0.3c-0.5,0.2-0.7,0.1-1.3,0.2c0.6,0.2-0.1,0.2-0.1,0.3l0.7-0.1
			c-0.9-0.1,0.3,0,0.2-0.3c0.4,0.1-0.6,0.4,0.1,0.4c-0.9,0.1-1.1,0-1.9,0.2c0.5,0-0.1,0.2,0.2,0.2c-0.7,0-0.2-0.1-0.4-0.3
			c-0.4,0-0.5-0.1-0.8,0.1c-0.6-0.1,0.1-0.2-0.2-0.3C32.5,0.6,34,1,33.8,0.5c0.3,0,0.7-0.2,1.1-0.2c-0.4-0.1-1-0.3-1.4-0.1l0,0.3
			c-0.4,0-0.4,0.2-0.7,0.2c0.1-0.1-0.1-0.2-0.4-0.2c0.1,0,0.2,0,0.2,0.1c-0.6,0-0.6,0.2-1.3,0.3c0.5,0.1,0.7,0.2,1.2,0.3
			c-0.1,0.2-0.4,0-0.7,0.1c0,0,0.1,0,0-0.1l-0.3,0.1c-0.7-0.1,0.1-0.3-0.5-0.4c-0.4-0.2-0.5,0.1-0.8,0c0,0,0,0,0.1,0.1
			c-0.1,0-0.1,0-0.1,0c0,0,0,0,0,0c-0.4,0-0.7,0-0.8,0.2c0-0.1-0.3,0-0.4,0.1c-0.2,0.1-0.7,0.3-1,0c0,0,0,0,0,0
			c-0.4,0-0.8-0.1-0.7-0.2l-0.7-0.1l0.1-0.2c-0.7,0.1-0.6,0.2-1,0.4c-0.5-0.1-1.3,0-1.6,0.1c-0.1,0-0.1,0-0.3,0l0.3,0.1
			c-0.5,0-0.5,0.1-0.8,0.1c0.1,0,0.1,0-0.1,0c0,0,0.1,0,0.1,0c0,0-0.1,0-0.1,0l0,0c-0.1,0-0.1,0-0.2,0c0,0,0.1,0,0.2,0l-0.1-0.1
			c-0.4-0.2-0.6,0.1-1.1,0c0,0,0.1,0,0.2,0c-0.2-0.1-0.6-0.4-0.7-0.2c-0.1,0-0.1,0-0.2,0.1l-0.2,0c0.1,0,0.1,0,0.2,0
			c-0.1,0.1-0.2,0.1-0.2,0.1l-0.6,0c-0.1,0-0.3,0-0.4,0l-0.1-0.1c-0.2,0-0.2,0-0.2-0.1c-0.8-0.3-1.2,0.2-2.1-0.1
			c-0.2,0.1,0.2,0.2,0.2,0.3c-0.1,0.1-0.6,0.2-0.9,0.3c-0.4-0.2-1.6-0.4-1.4-0.7c-0.7,0,0.2,0.2-0.1,0.3l-0.1,0
			c0.2,0,0.4,0.1,0.6,0.2c0.1,0.2-0.6,0.2-0.8,0.2l0.1-0.2c-0.7,0.1-0.5,0.4-0.9,0.7c-0.5-0.1-0.2-0.3-0.3-0.5l-0.5,0.1V1.3
			c-0.4,0-0.4,0.2-0.9,0.1c0.4-0.2-0.7-0.2-0.2-0.4c-0.3-0.1-0.4,0.3-0.5,0c-0.2,0.2,0.2,0.1,0.4,0.1c0.1,0.3-0.6,0.1-0.9,0.2
			c0-0.1,0.2-0.2-0.2-0.3c-0.1,0.1-0.3,0.2-0.5,0.1c0,0.2-0.4,0-0.7,0c0.2,0,0.6,0.2,0.4,0.3C9.9,1.7,9.8,1.7,9.3,1.7l0.3,0.1
			C9.3,2,9,1.6,8.5,1.7C8.7,1.5,8.8,1.5,9,1.4C8.8,1.5,8.3,1.6,7.9,1.7L7.5,1.5C7.4,1.6,7,1.4,7,1.6C6.5,1.5,7.4,1.4,7.5,1.3
			C6.8,1.2,7,1.6,6.3,1.3l0.2-0.2c-0.2,0-0.7,0.1-0.7,0c0,0.1,0.1,0,0.2,0c-0.1,0.3-1,0.2-0.9,0.6l0.3,0C5,1.9,4.7,2.1,4.3,2
			C4,1.9,4.5,1.7,4.7,1.7C4.2,1.6,4.3,2,3.8,2C4.1,2.1,4,2.2,3.8,2.3c0.3,0,0.9,0.1,0.8-0.1l-0.1,0c0-0.1,0.2-0.1,0.3-0.2
			C5.2,2,5,2.2,5.1,2.2c0.7,0.1,0.1-0.4,0.7-0.3L5.9,2c0.3-0.1,0.8-0.1,0.8-0.3c0.3,0.2,0.7-0.1,1,0c0.1,0.5-1.1,0-1.4,0.2
			C6.6,2,6.1,2.2,6,2.3l1-0.2c0.1,0.1,0.4,0.3,0.6,0.1l-0.1,0C7.9,2.1,7.8,1.9,8.2,2c0.1,0-0.1,0.1-0.1,0.2c0.3,0,0.3-0.1,0.5-0.2
			c0.3,0-0.2,0.2,0.1,0.3c0.4-0.2,0.6,0,0.9,0C9.5,2,10.9,1.9,10.2,1.7L11,1.5c0.2,0.1-0.5,0.4-0.3,0.6l-0.6,0
			c0.1,0.4,1.3-0.2,1.7,0.2c0.3,0,0.3,0,0.9,0.1l-0.1-0.3C12.9,2.2,13,2.3,13,2.4c0.2,0,0.4,0,0.5,0c0,0-0.1,0.1-0.2,0.1
			c0.2,0.2,0.3,0.1,0.4,0c0.1-0.1,0.3-0.1,0.5-0.1l-0.2,0.1c0.1,0,0.3-0.1,0.3-0.1c0.1,0,0.2,0,0.2,0c-0.1-0.1-0.2-0.2-0.5-0.3
			c0.8,0.1,1.4,0.1,2,0.3c0,0.1-0.3,0.2-0.2,0.2c0.3,0,0.7-0.1,0.7-0.3c0.1,0,0.1,0,0.2,0c0.1,0.1,0.1,0.2,0.3,0.2
			c0,0,0.1,0.1,0.2,0.1c0.1-0.3,0.7-0.1,0.9-0.2c-0.1,0-0.3,0-0.5,0c0.3-0.2,0.5-0.4,0.7-0.2c-0.5,0.2,0.5,0.3-0.2,0.3
			c0.5,0.3,0.3-0.2,0.8-0.1l0.4,0.1c-0.1,0.2-0.6,0.1-0.5,0.2l0.2,0c-0.2,0.1-1.2,0-1.8,0.3L18.5,3c1.4-0.2,3.3,0,4.5-0.4
			c0,0,0,0-0.1,0c0,0,0-0.1,0-0.1l0.1,0l0.2-0.1c0.3,0.2,0.8,0.2,1.2,0.3c-0.3-0.1-0.3-0.1-0.3-0.2c0.1-0.2,0.1-0.3,0.5-0.2
			c0,0.1-0.2,0.1,0.1,0.2c-0.2-0.1,0-0.2,0.2-0.2c0.2,0.1,0.6,0.1,0.6,0.2c-0.1,0-0.2,0-0.3,0c-0.1,0,0.4,0.1,0.1,0.2l0.4,0
			C26,2.8,25.6,2.9,25.7,3c0.7-0.1,1.1-0.4,1.7-0.5c0,0.1,0,0.4,0,0.3c0.5,0.1,1-0.3,1.6-0.3c-0.1,0.1-0.3,0.1-0.5,0.1
			c1.7,0.1,3.1,0.1,4.6,0.4l0.4-0.3L34,2.8c1.7,0.2,2.9,0,4.5-0.1C39,2.7,38.8,2.9,39,3c1.1,0,1.3-0.3,2.4-0.4C41.3,2.7,41,3,41.5,3
			c0.1-0.1,0.1-0.2,0.4-0.2l-0.1,0.1c0.3,0.1,0.5,0,1,0.1c0.6,0,1.1-0.1,1.7-0.2C44.4,1.9,44.4,1,44.4,0.2z M24.4,1.2
			c-0.6,0.1-0.4,0-0.4-0.1c0.6,0.1,0.9,0,1.4,0.1c-0.1-0.1-0.1-0.1-0.1-0.2c0.2,0,0.4,0.1,0.5,0.2C25.4,1.5,24.1,1.1,24.4,1.2z"/>
		<path d="M13.8,2.5C13.8,2.4,13.8,2.4,13.8,2.5C13.9,2.4,13.9,2.4,13.8,2.5L13.8,2.5z"/>
		<path d="M19.7,1.1L19.7,1.1C19.6,1.2,19.5,1.3,19.7,1.1z"/>
		<path d="M45.4,21.1c-0.5,0.1-1.1,0.1-1.6,0.3c0.4-0.2,0-0.3-0.3-0.4c0.5,0,0.5-0.3,0.5-0.4c-0.3,0-0.5,0.3-0.3,0.4
			c-0.5-0.1-0.3,0.2-0.8,0c-0.3-0.1,0.1-0.2,0-0.3c-0.5,0-0.1,0.3-0.7,0.2c0,0,0.1,0,0-0.1c-0.3-0.1-0.7,0.1-0.7,0.2
			c-0.3-0.3-1,0-0.9-0.3c-0.8,0.1,0.1,0.2,0,0.3c-0.3,0.1-0.9,0-1.1,0c0.2,0,0.4-0.1,0.6,0l-0.2-0.2c-1-0.2-0.6,0.5-1.5,0.3
			c0.5-0.1,0.2-0.2,0.4-0.3c-0.1,0.1-0.9,0-0.4,0.2c-0.4,0-0.6-0.1-0.8-0.1c-0.3,0.1-0.6,0.1-0.8,0.3c-0.5,0-0.9-0.2-1.1-0.3
			c-1,0.2-2-0.1-3.1,0.1l0.1,0c-0.8,0,0.4,0.3-0.5,0.3c0.1-0.3-0.5-0.2-0.8-0.3c-1.1-0.1-1.9,0.2-2.8,0c0-0.1,0.1-0.1,0.3-0.1
			c-0.8-0.1-1.4,0-2,0l0,0c-1.1-0.2-2.1,0-3.2,0.1c0.1,0,0.1-0.1,0.2-0.2c-0.6-0.1-1.5-0.1-1.9,0.1c-0.7-0.3-0.4,0.1-1.3-0.2
			c-0.1,0,0.1,0,0.1-0.1c-0.4-0.1-0.7-0.1-1.2-0.1c-1,0.2-1.2,0.5-2.3,0.4c-0.1-0.4,0.7-0.1,0.7-0.4c-0.2,0.1-0.4,0.1-0.7,0.1
			c0.2-0.1,0-0.1,0.2-0.2c-0.2-0.1-0.9,0.4-0.9,0.3c0,0.1,0.1,0.1,0.3,0.1c-0.3,0.2-1.1,0-1.6,0.1c0.2,0,0.7,0.1,0.5,0.3
			c-0.7-0.1-1,0.3-1.5,0.4c-0.7-0.2,0.5-0.3,0.4-0.6c-0.1-0.1-0.4-0.3-0.1-0.4c-0.6-0.1-1,0.2-1.6,0.2l0-0.1c-0.7,0-1.5,0.3-2.2,0.2
			l0.3,0.1c-0.1,0-0.5,0-0.7,0.2c0-0.1-0.5-0.2-0.3-0.3c-0.3,0.4-1.7,0.2-2.1,0.6c-0.2-0.1,0-0.3,0-0.3c0.5,0,0.6,0.1,0.9,0
			c-0.4,0-0.7-0.1-0.6-0.2c-0.4,0.2-1.3,0.3-1.5,0.6c-0.3-0.1-0.6-0.2-0.5-0.4c-1.2,0.1,0.6,0.6-0.8,0.6c-0.6-0.2,0.6-0.3-0.2-0.3
			l0.2,0c-0.6-0.5-0.4,0.4-1.1,0.4c-0.1-0.3,0.5-0.2,0-0.4c-0.6,0.1-0.9,0.5-1.6,0.4l0.1-0.1c-0.3,0-0.9,0-1.3,0
			c0.1-0.1-0.2-0.3-0.1-0.3l0.1,0c0-0.1,0.1-0.2-0.1-0.4c0.2,0.1,0.1-0.2,0.2-0.1c0.3,0.4-0.2,0.2-0.1,0.4c0.1,0,0.1,0.2,0.2,0.3
			l0-0.3c0.1,0,0.3,0.2,0.2,0l0,0c0-0.1-0.1-0.2,0-0.3c0,0,0.1,0.1,0.1,0.1c0.1,0,0-0.1,0-0.2c0.1,0,0.1,0.2,0.2,0.2
			c-0.1-0.2,0.1-0.1,0.2-0.1c-0.2-0.2,0-0.5-0.3-0.6l0-0.3c0.1,0.1,0.2,0.4,0.4,0.5l-0.1,0.1c0.3,0.2,0.1-0.4,0.4-0.2
			c0.1,0,0-0.1,0.3,0L2.6,20c0.1,0,0.2,0.1,0.3,0.1c0,0,0.1-0.1,0.1-0.1c0,0,0,0.1,0,0.1c0.2,0.1,0.1,0,0.1-0.1c0-0.1,0-0.1,0.1-0.1
			l0,0.1c0,0,0-0.1,0-0.1c0,0,0,0,0-0.1c0,0-0.2-0.1-0.3-0.2c0.2,0,0.3-0.2,0.6-0.1c0.1,0.1,0.1,0.2,0.1,0.2c0.1,0,0.1-0.2,0-0.3
			c0,0,0,0,0,0c0.1,0,0.1,0.1,0.2,0.1c0,0,0.1,0,0.1,0c-0.1-0.2,0.1-0.2,0-0.3c0,0-0.1,0-0.1,0.1c-0.1-0.2-0.1-0.4,0-0.3
			c0,0.2,0.3,0.1,0.2,0.3c0.3,0.1-0.1-0.2,0.1-0.2l0.2,0c0.1,0.1,0,0.2,0,0.2l0-0.1c0,0.1-0.2,0.2-0.2,0.5l0.3-0.1
			c0.1-0.4,0.6-0.5,0.6-1l0,0c0,0,0,0-0.1-0.1l0,0l0-0.1c0.2,0.1,0.3,0,0.5,0c-0.1,0-0.1,0-0.2-0.1c-0.1-0.1-0.2-0.2,0-0.2
			c0.1,0.1,0,0.1,0.2,0.2c-0.1,0-0.1-0.1-0.1-0.2c0.1,0,0.2,0,0.3,0.1c0,0,0,0-0.1,0c0,0,0.2,0,0.2,0.1l0.1-0.1
			c0.1,0,0.1,0.2,0.1,0.2c0.1-0.2-0.1-0.5,0-0.6c0,0.1,0.2,0.3,0.2,0.2c0.1,0,0-0.4,0.1-0.5c0,0.1,0,0.1,0,0.1
			c0.4-0.2,0.6-0.4,1.1-0.5l-0.1-0.3l0.2,0.1c0.4-0.1,0.5-0.5,0.8-0.8C8,16,8.1,16.2,8.2,16.2c0.2-0.2,0-0.5,0.2-0.7
			c0,0.1,0.2,0.3,0.3,0.3c0-0.1-0.1-0.2,0-0.2l0,0.1c0.1,0.1,0.1-0.1,0.2-0.1C9,15.4,9.1,15.1,9,14.7c0.2-0.1,0.2,0.3,0.3,0.3
			c-0.2,0,0,0.1,0,0.2c0-0.1,0-0.2,0.2-0.1C9.5,15,9.6,15,9.6,14.8c0,0.1-0.1,0-0.1-0.1c0.1,0,0.2-0.2,0.4,0
			c0.3-0.4,0.8-0.7,1.2-1.1c0-0.2-0.1,0-0.1-0.1c0-0.2,0.1,0,0.1-0.2l0.1,0.1c0.1,0,0.1-0.1,0.1-0.3c0-0.1,0.1-0.3,0.1-0.4
			c0.1,0.1,0.3,0,0.2,0.2c0.1-0.1,0.8,0.2,0.8,0.1c-0.2-0.1-0.5-0.2-0.7-0.3c-0.1,0,0.1-0.1,0.1-0.1c0.2,0,0.4,0,0.5-0.1
			c0.2,0.1,0,0.2-0.1,0.2c0.2,0.2,0.5-0.2,0.6,0.1c0.2-0.2-0.2,0-0.2-0.2l0.2-0.1l-0.2,0.1c0.1-0.2-0.1-0.3,0.2-0.4
			c0-0.1-0.1-0.2-0.2-0.2c0.3,0.1,0.2-0.1,0.3-0.2l0.1,0.1c0.1-0.1,0.2-0.1,0.4-0.2c0.2,0.1-0.2,0.1,0,0.2l0.2-0.1
			c-0.2,0-0.2-0.1-0.4,0c-0.2-0.2-0.4-0.2-0.1-0.5c0.4-0.1,0.1,0.1,0.5,0.1c0.3-0.2,0-0.3-0.2-0.4c-0.2,0-0.3-0.1-0.4-0.1
			c-0.1-0.2-0.4-0.1-0.6-0.3c0.3,0,0.1-0.1,0.2-0.2l0.3,0c-0.1,0-0.1-0.1,0-0.1c-0.2,0.1-0.5-0.2-0.8-0.3L12,10.1
			c-0.2-0.1-0.4-0.1-0.5-0.2c-0.2-0.1-0.3,0-0.6,0c0.1-0.1,0.2-0.3,0.4-0.4c0,0.1,0.1,0.1,0.1,0.2c0.3,0.1,0.9,0.1,1.1,0.3
			c0.6-0.1-0.2-0.1-0.2-0.3c0,0,0,0,0.1,0c0,0,0,0,0,0c0.2,0.1,0.4,0.1,0.7,0.1c-0.2-0.1-0.6,0.1-0.6-0.2c-0.3-0.1-0.1-0.3-0.2-0.4
			c-0.3,0-0.5,0.2-0.7,0l0.3-0.1c-0.3-0.2-0.4,0.1-0.6-0.1c0.1,0.1-0.2,0.1-0.1,0.2c-0.2,0-0.3-0.1-0.4-0.2c0,0-0.1,0.1-0.1,0.1
			c0,0.2,0.3,0,0.2,0.3c0.1,0,0.2-0.1,0.3-0.1c0.1,0.2-0.1,0.3-0.2,0.3c0,0,0.1,0,0.1,0.1c-0.3,0.3,0-0.2-0.3,0l0.1,0
			c-0.2,0.2-0.3,0-0.4,0c0-0.2-0.1-0.3,0-0.4l0.2,0c0-0.2-0.2,0-0.3-0.1c0,0,0,0,0-0.1c0,0,0,0,0,0c0,0,0,0,0-0.1
			c-0.1-0.1-0.2,0-0.2-0.1L10,9.2l0.1-0.1c0.1,0,0.1,0.2-0.1,0.2c-0.2,0,0-0.3,0-0.4c0.2-0.2,0.1,0.1,0.2,0.1
			c0.1-0.2-0.1-0.1-0.1-0.3c0.2-0.2,0.1,0.1,0.3-0.1c-0.1-0.1-0.2,0-0.3-0.1c0.1-0.1,0.2,0,0.3-0.1l0-0.1C10.6,8.4,10.6,8,10.8,8
			c0-0.1-0.2,0.1-0.2-0.1c0,0.1-0.1,0.3-0.3,0.4l0-0.1c0-0.1,0.3-0.1,0.3-0.3l-0.2,0c0,0.1,0,0.1-0.1,0.2c0-0.1-0.3,0.2-0.4,0.2
			c-0.1,0-0.1-0.1,0-0.2C9.5,8.2,9.4,8,9.1,8.1C9.3,8,9.3,7.9,9.3,7.7c0.1,0.1,0.3-0.1,0.4-0.3c-0.1,0-0.3,0.1-0.3,0.2
			c0-0.2-0.2,0.1-0.2-0.1c0-0.1,0.2-0.2,0.2-0.3C9.3,7.2,9.2,7.5,9.1,7.4c0,0,0,0,0.1-0.1c0-0.1-0.2-0.1-0.3,0C9,7.1,8.7,7.2,8.9,7
			C8.7,7,8.8,7.2,8.7,7.2C8.6,7.3,8.5,7.1,8.5,7c0,0,0.1,0,0.1,0l0.1-0.2c-0.1-0.3-0.4,0.3-0.5,0c0.2,0,0.1-0.1,0.3-0.2
			c-0.1,0-0.2-0.1-0.2,0.1C8.3,6.7,8.3,6.6,8.3,6.6c-0.1,0-0.2,0-0.3,0.1c-0.1-0.1-0.1-0.3,0-0.4c-0.3,0-0.3-0.4-0.6-0.4l0,0
			C7.1,5.7,7.1,6.2,6.9,6c0.2-0.2,0-0.2,0-0.4C6.9,5.4,6.5,5.5,6.4,5.2c0,0,0.1-0.1,0.1-0.1C6.4,5,6.3,4.9,6.2,4.8l0,0
			C6.1,4.4,5.7,4.5,5.5,4.4c0,0,0.1-0.1,0.1-0.1C5.5,4.1,5.4,3.9,5.2,4.1c0-0.3-0.1,0-0.2-0.3c0,0,0,0,0.1,0C5,3.6,5,3.5,4.9,3.5
			c-0.3,0-0.6,0.2-0.7,0c0.2-0.3,0.2,0,0.4-0.2c-0.1,0-0.2,0-0.2-0.1C4.5,3.1,4.4,3.1,4.5,3c0-0.1-0.4,0.2-0.4,0.1
			c0,0.1-0.1,0.1,0,0.1C3.9,3.4,3.9,3.1,3.7,3.1c0,0,0.1,0.2-0.1,0.3C3.6,3.2,3.3,3.5,3.1,3.5c0-0.2,0.3-0.2,0.4-0.4
			c0-0.1,0.1-0.3,0.2-0.3c-0.1-0.1-0.3,0-0.4-0.1l0-0.1c-0.2-0.1-0.5,0-0.6-0.2l0,0.1c-0.1,0-0.1-0.1-0.2,0c0.1-0.1,0-0.3,0.1-0.3
			C2.4,2.6,2.3,2.2,2,2.5c0-0.1,0.1-0.2,0.2-0.3c0.1,0.1,0.1,0.2,0.2,0.1c-0.1-0.1-0.1-0.2,0-0.2c-0.1,0-0.1,0.1-0.2,0.1
			c0,0,0.1-0.1,0.1-0.1C2.1,2.1,1.9,2.1,1.7,2.1c0-0.1,0-0.1,0.1-0.2C1.7,1.9,1.7,2,1.6,2.1c0,0-0.1,0-0.1,0c0,0,0.1,0,0-0.1l0.1,0
			c0.2-0.5-0.3,0.2-0.4,0.1C1.2,1.9,1.3,2,1.3,1.8l0,0L2,1.7L1.3,1.8c0,0,0,0,0,0C1.2,1.7,0.9,2,0.8,1.8l0.1-0.1
			c-0.1,0-0.2-0.2-0.3-0.3c0,0,0,0,0.1,0C0.5,1.3,0.5,1.5,0.5,1.3L0.4,1.4c0,0.1,0,0.3,0.2,0.3c-0.1,0-0.1,0.2-0.2,0.3
			c0,0,0,0-0.1,0l0.1,0c0,0.1-0.1,0.2-0.1,0.2l0.1-0.1c0,0.5,0.2,0.7,0.3,1.1c0.3-0.1,0.2,0.3,0.5,0.3c0.2-0.2,0.1,0,0.3,0
			c-0.1,0-0.2,0.2-0.1,0.3c0.1,0,0.1,0,0.2,0c0,0.1,0,0.5,0.2,0.3c0,0.2-0.1,0.1-0.1,0.1c-0.1,0.2,0.2,0,0.1,0.1c0,0,0,0,0,0
			c0.1,0.1,0.2,0.2,0.3,0.4c0.2-0.2,0.2,0,0.4,0c-0.1,0.1,0,0.2,0,0.2l0.2-0.1c0.2-0.1,0,0.2,0.2,0.2l0-0.1c0.1,0,0.2,0.3,0.2,0.5
			c1.1,0,0.8,1.1,1.6,1.5c0.1,0,0.1-0.2,0.2-0.2c0.1,0,0.1,0,0.2,0.1c0-0.1-0.1,0,0-0.1l-0.2,0c0,0,0,0,0-0.1c-0.1,0-0.1,0-0.2,0
			c0.1,0,0.3-0.2,0.3-0.1c0,0,0,0-0.1,0C4.9,6.5,5,6.4,5,6.5c0,0.1,0.1,0,0,0.1l0.1,0.3C5.4,6.7,5.4,7,5.4,7.1C5.2,7.2,5.2,7,5,7.2
			l0,0.2l0.1-0.1l0.1,0.1l0,0c0.1,0,0.1-0.1,0.1,0c0,0,0,0.1,0,0.1l0.1,0c-0.2,0.1,0,0.1-0.1,0.2c0.2,0.3,0.5,0,0.5,0.4
			c0-0.1,0.3-0.2,0.3-0.1C6.1,8,6,8,6,8.1l0.1,0C6,8.4,6.3,8.3,6.4,8.5L6.3,8.6c0.1,0,0.2-0.1,0.3,0L6.5,8.7c0,0.2,0.3-0.2,0.4-0.1
			C6.9,8.5,6.9,8.4,7,8.2c-0.1,0.2,0,0.3,0.1,0.2c0.2,0,0.1,0.1,0.1,0.1l0.1,0c0.1,0.1-0.1,0.2-0.2,0.3c0.2-0.1,0.2,0.1,0.3,0.2
			L7.3,9l0.1,0.1c0.2-0.1,0.3,0,0.3,0.1L7.5,9.4c0,0.2,0.1,0,0.1-0.1c0.2,0,0.1,0.1,0.1,0.3C8,9.5,7.7,10.2,8.1,10L8,10.1
			c0.4-0.1,0.3,0.4,0.8,0.2c-0.1,0.6,0.4-0.3,0.4,0.3l0-0.1l0.2,0.2c0.1,0.1,0,0.1,0.1,0.1c0,0,0,0.1,0,0.1c0,0.1,0,0.1,0.1,0.1
			l0.1,0l-0.1,0c-0.1,0-0.1,0-0.1,0c0,0,0,0,0,0l0,0c0,0,0,0,0,0l-0.2,0.2c-0.5,0.5-1,1-1.5,1.4c0,0.2,0.2,0.3,0.2,0.4
			c0,0-0.1,0.1-0.2,0c0-0.1-0.1-0.2-0.1-0.2c-0.1,0.1-0.4,0.1-0.4,0.3l0.2,0c0,0.1-0.1,0.1-0.1,0.1c0-0.1-0.2-0.2-0.2-0.2
			c0.1,0.5-0.3,0-0.4,0.3c0.2,0.3,0.2,0.7,0.2,1l-0.1,0c0.1-0.1-0.2-0.2,0-0.3c-0.2,0-0.2,0.2-0.3,0.3c0.1,0,0.2,0.1,0.1,0.2
			c-0.1,0-0.2-0.1-0.3-0.1l0-0.1c-0.1-0.1-0.1,0.1-0.1,0.2c-0.1-0.1-0.2,0-0.3-0.2c0,0.2-0.1,0.2-0.1,0.4c0.2,0,0.1,0.2,0.2,0.3
			l0.1-0.2c-0.2,0.1,0-0.1-0.1-0.2c0.2,0,0.2,0.4,0.3,0.3c-0.1,0.2-0.2,0.2-0.2,0.5c0.1-0.1,0.1,0.1,0.2,0.1c-0.1,0.1-0.1,0-0.2-0.1
			c-0.1,0.1-0.2,0-0.1,0.2c-0.2,0-0.1-0.2-0.2-0.2c-0.1-0.2,0.5-0.1,0.1-0.5c0.1-0.1,0-0.3,0.1-0.3c-0.1,0-0.4,0-0.4,0.2l0.2,0.2
			c-0.1,0.1,0.1,0.2,0,0.3c0-0.1-0.2-0.1-0.2-0.1c0,0,0.1,0,0.1,0c-0.1,0.1,0,0.3,0,0.4c0.2,0,0.2,0,0.4,0c0.1,0.2,0,0.1-0.1,0.2
			c0,0,0,0-0.1-0.1l0,0.1c-0.2,0-0.2-0.3-0.4-0.2C5,15.8,5.2,16.1,5,16c0,0,0,0,0,0c0,0,0,0,0,0l0,0c0,0.1-0.1,0.1,0,0.3
			c-0.1,0,0,0.1,0,0.1c0,0.1,0,0.3-0.2,0.2l0,0c-0.1,0.1-0.2,0.1-0.3,0l-0.2,0.1l-0.1-0.2c-0.1,0.2,0,0.2,0.1,0.5
			c-0.2,0-0.3,0.2-0.3,0.3c0,0,0,0,0,0l0.1,0c-0.1,0.1,0,0.2-0.1,0.2c0,0,0,0,0,0l0,0c0,0,0,0,0,0l0,0c0,0,0,0,0,0c0,0,0,0,0,0
			l-0.1,0c-0.2-0.1,0,0.2-0.2,0.2c0,0,0,0,0,0c-0.1,0-0.4-0.2-0.2,0c0,0,0,0,0,0.1l-0.1,0c0,0,0,0,0.1,0c0,0.1,0.1,0.1,0,0.1L3.4,18
			c0,0-0.1,0-0.1,0.1l-0.1,0c0,0-0.1,0-0.1,0c-0.4-0.1-0.1,0.3-0.5,0.3c0.1,0.1,0.2,0.1,0.2,0.2c0.1,0.1,0,0.3,0,0.4
			c-0.2-0.1-0.6,0-0.7-0.3c-0.1,0.1,0.2,0.1,0.2,0.2l0,0c0.1,0,0.2,0,0.3,0.1c0.1,0.1,0,0.2,0,0.2L2.5,19c-0.1,0.2,0.2,0.4,0.3,0.6
			c-0.2,0-0.2-0.2-0.4-0.3l-0.1,0.1l-0.1-0.1c0,0.1,0.1,0.2-0.1,0.3c0-0.2-0.2,0-0.3-0.2c-0.1,0,0.1,0.3-0.1,0.1
			c0.1,0.2,0.1,0,0.2,0c0.2,0.2,0,0.2,0,0.3c-0.1-0.1-0.1-0.2-0.2-0.2c0.1,0.1,0.1,0.2-0.1,0.1c0.1,0.1-0.1,0.1-0.1,0.1
			c0.1,0,0.2,0,0.3,0.2c0,0.1,0,0.1-0.1,0.2l0.1,0c0.1,0.3-0.2,0-0.3,0.1c0-0.1,0-0.1-0.1-0.3c0,0.1,0,0.3,0,0.4l-0.2-0.1
			c0.1,0.1-0.1,0.1,0,0.2c-0.2,0-0.1-0.2-0.1-0.3c-0.2,0,0.1,0.3-0.2,0.2l-0.1-0.2c0,0-0.1,0.2-0.1,0.1c0,0,0,0,0.1,0
			C1,20.7,0.8,20.8,1,21l0.1,0c0,0.1,0,0.2,0,0.3c0,0-0.1,0-0.1,0c-0.1-0.1-0.1-0.2-0.1-0.3c-0.1,0,0,0.2,0.1,0.3
			c-0.4,0-0.2,0.1-0.7,0l-0.2,0.1c0.2,0.1,0.4,0.1,0.7,0.1c0,0.1,0.1,0.2,0,0.2c0.1,0.1,0.2-0.2,0.4,0c0.2,0-0.1-0.1-0.1-0.2
			c0,0,0,0,0.1,0c0,0,0,0.1,0.1,0.1c0.1,0,0.2-0.1,0.1-0.1c0,0,0.1,0,0.1,0C1,21.6,2,21.8,1.8,22.1L1.9,22c1,0.4,2.3,0.5,3.6,0.6
			c0.8-0.3,1.4,0.1,2.3-0.1c0.1-0.3,0.2-0.1,0.9-0.1c-0.4,0,0,0.3,0.2,0.3c0.1-0.1,0.3-0.1,0.5-0.1c0.2,0.1,1.1,0.4,1.4,0.2
			c0.5,0.1-0.1,0.1-0.2,0.2c0.2,0.2,0.4-0.1,0.5,0c0,0,0,0-0.1,0.1c0.7,0,1.1,0.1,1.8,0.1c0.1-0.3,0.7-0.1,1-0.2
			c-0.1,0.1,0.4,0.1,0.6,0.2l0.4-0.2c0.4-0.2,0.5,0.1,1,0l-0.1-0.1c0.4-0.1,1.3,0.1,1.7,0.3c3.4-0.6,5.2,0.4,8.8,0.2
			c0.2-0.1-0.2-0.2,0-0.3c0.4,0,0.4,0,0.8,0c-0.3-0.1-0.2,0-0.2-0.1l-0.5,0.1c0,0,0,0,0-0.1c-0.2,0-0.4,0.1-0.6,0.1
			c0.3-0.1,0.4-0.3,0.8-0.2c0,0-0.1,0-0.2,0.1c0.4,0,0.4-0.1,0.6,0c0.3,0.1,0.2,0,0.3,0.1l1,0.1c0.5-0.3,1.1,0,1.3,0
			c-0.1,0.2-0.7,0.1-0.9,0.3l0.4,0.2l0-0.2l0.5,0l0,0c0.1-0.1,0.1-0.1,0.3-0.1c0,0,0.1,0.1,0,0.1l0.4-0.1c-0.2,0.2,0.3,0.1,0.3,0.3
			c1.2,0.1,1.5-0.3,2.6,0c-0.2-0.1,0.3-0.3,0.7-0.3c0.2,0.1,0.2,0.1,0.1,0.2l0.4-0.1c0.5,0.3,1.1,0.1,1.8,0.2l0,0.1
			c0.3-0.1,0.6-0.2,1-0.2L37,23.5c0.5,0.1,0.4-0.4,1-0.3c0-0.2-0.4-0.3-0.4-0.5c0.1,0.2,0.8,0.2,0.6,0.1c0.6-0.1,0.4,0,0.5,0.1
			l0.3-0.1c0.4,0,0.1,0.3,0,0.4c0.4-0.2,0.8-0.1,1.2,0l-0.2,0.1l0.6,0C41,23,41.5,23,42,23.1l-0.3,0.3c0.3,0.1,0.2-0.1,0.3-0.1
			c0.5-0.1,0.6,0,0.9,0.2c0.9-0.3,1.7,0.4,2.4,0l0.1,0.2c0,0,0,0,0,0C45.4,22.8,45.4,21.9,45.4,21.1z M4.1,17.3
			c0.2,0,0.2-0.2,0.3-0.2c0,0-0.1-0.1-0.1-0.1c0,0,0.1,0,0.2,0.1c0.1,0.2-0.4,0.1-0.2,0.2C4.2,17.5,4.1,17.4,4.1,17.3z"/>
		<polygon points="3.1,20 3.1,20.1 3.1,20 		"/>
		<path d="M1.3,2.3C1.3,2.3,1.3,2.3,1.3,2.3c0.1,0,0.1,0,0.2,0C1.5,2.3,1.4,2.3,1.3,2.3z"/>
		<path d="M1.7,2.3C1.7,2.3,1.7,2.3,1.7,2.3C1.7,2.3,1.7,2.3,1.7,2.3C1.7,2.3,1.7,2.3,1.7,2.3z"/>
		<path d="M3.3,18.1C3.3,18.2,3.4,18.2,3.3,18.1L3.3,18.1z"/>
		<path d="M0.9,21.6c-0.1,0-0.1-0.1-0.1-0.1C0.9,21.5,0.9,21.5,0.9,21.6L0.9,21.6z"/>
		<path d="M1.2,21.4C1.2,21.3,1.1,21.3,1.2,21.4C1.2,21.3,1.2,21.3,1.2,21.4C1.2,21.3,1.2,21.3,1.2,21.4
			c0-0.1,0-0.1,0-0.1c0.1-0.1,0.1,0.1,0.2,0.1C1.3,21.4,1.2,21.4,1.2,21.4z"/>
	<path d="M44.8,20.5c-0.1,0.1-0.5,0-0.6-0.1l0.1,0.1C44.5,20.6,44.8,20.7,44.8,20.5z"/>
	<path d="M39.4,23.5c0.1,0,0.2,0,0.2,0c0.1-0.1,0-0.1,0-0.2L39.4,23.5z"/>
	<path d="M38.7,23.2l0.1-0.1l-0.5,0.2c0.6,0,0.7-0.1,1.1-0.2C39.2,23.1,38.9,23.3,38.7,23.2z"/>
	<path d="M29.2,22.8c-0.5,0.1-0.9,0.1-1.5,0.1c0.1,0.1-0.3,0.3-0.1,0.2l0.6-0.1l-0.1,0.1c0.5,0.1,0.3-0.2,0.8-0.1
		C28.9,22.8,28.8,22.8,29.2,22.8z"/>
	<path d="M2.9,21.2c-0.4,0.1,0.2,0.2,0.1,0.2C3,21.3,2.9,21.3,2.9,21.2z"/>
	<path d="M0.2,21.9L0.2,21.9C0.2,22.1,0.2,22,0.2,21.9z"/>
	<path d="M0.6,22c0.2,0,0.3-0.1,0.1-0.3C0.7,21.9,0.5,21.8,0.6,22z"/>
	<polygon points="0.4,21.7 0.5,21.8 0.5,21.6 	"/>
	<polygon points="0.4,21.7 0.4,21.5 0.3,21.7 	"/>
	<path d="M5,16C5,16,5,16,5,16C5,16,5,16,5,16z"/>
	<path d="M6.2,14.7C6.3,14.7,6.3,14.7,6.2,14.7C6.3,14.7,6.3,14.6,6.2,14.7L6.2,14.7z"/>
	<path d="M4.5,17.2C4.5,17.2,4.4,17.2,4.5,17.2C4.4,17.2,4.5,17.2,4.5,17.2z"/>
	<path d="M10.8,9.5C10.8,9.5,10.8,9.5,10.8,9.5L10.8,9.5L10.8,9.5L10.8,9.5z"/>
	<path d="M7.5,13C7.5,13,7.5,13,7.5,13C7.5,13,7.5,13,7.5,13z"/>
	<path d="M2.4,20.6C2.5,20.6,2.5,20.6,2.4,20.6C2.4,20.5,2.4,20.5,2.4,20.6z"/>
	<path d="M2.5,20.5c0.1,0,0.3,0.3,0.1,0l0,0c0.1,0,0-0.1,0.1-0.2c0,0,0,0-0.1-0.1c0,0-0.1,0-0.1,0
		C2.4,20.3,2.5,20.4,2.5,20.5z"/>
	<path d="M3.2,18C3.2,18,3.2,18,3.2,18C3.2,18,3.2,18,3.2,18z"/>
	<path d="M4.6,3.3c0.1,0,0,0.1,0,0.1c0.2-0.1-0.1-0.1,0.1-0.2C4.6,3.2,4.6,3.2,4.6,3.3L4.5,3.4C4.6,3.4,4.5,3.4,4.6,3.3
		z"/>
	<path d="M10.6,8.8L10.6,8.8c0.1-0.1,0.1-0.1,0.1-0.2c-0.1,0.1-0.2,0.3-0.4,0.4c0,0,0,0,0.1,0.1
		C10.4,9,10.5,8.9,10.6,8.8z"/>
	<path d="M10.3,9.1C10.3,9.1,10.3,9.1,10.3,9.1C10.3,9.1,10.3,9.2,10.3,9.1c0,0.1,0,0.1,0,0.1
		C10.4,9.2,10.4,9.1,10.3,9.1z"/>
	<path d="M5.6,4.2C5.6,4.3,5.6,4.3,5.6,4.2C5.6,4.2,5.6,4.2,5.6,4.2z"/>
	<path d="M11.5,9.8C11.5,9.8,11.5,9.8,11.5,9.8C11.5,9.8,11.5,9.8,11.5,9.8L11.5,9.8z"/>
	<path d="M7.4,9.2c0.2-0.2,0,0,0-0.2L7.2,9.1C7.2,9.2,7.3,9.2,7.4,9.2z"/>
	<polygon points="4.6,3.2 4.5,3.2 4.6,3.2 	"/>
	<path d="M10.6,9.4l0.2,0.2l0-0.1C10.7,9.6,10.7,9.4,10.6,9.4z"/>
	<path d="M0.5,20.7c0,0.2,0.1,0.3,0.2,0.4c0-0.2,0.1-0.2,0.2-0.3l-0.2,0l0-0.1L0.5,20.7z"/>
	<path d="M3,20.8l-0.2,0C2.9,20.9,3.1,21,3,20.8z"/>
	<path d="M1.5,19.9c0,0.1-0.1,0-0.1,0l0,0.1C1.5,20,1.5,20,1.5,19.9z"/>
	<path d="M3.3,20.4c0,0.1-0.2,0,0,0.2C3.2,20.4,3.4,20.6,3.3,20.4z"/>
	<path d="M1.7,19.3c0.1,0,0.3,0,0.2-0.1C1.7,19.1,1.8,19.3,1.7,19.3z"/>
	<path d="M3.4,19.7c0.1,0.1,0,0.1,0,0.2C3.4,19.8,3.3,19.8,3.4,19.7c-0.1,0.2-0.1,0.2-0.1,0.3c0.1,0,0.3,0,0.4,0.1
		C3.6,20,3.5,19.7,3.4,19.7z"/>
	<path d="M1.8,19.1C1.8,19.1,2,19.2,2,19.1l0.1,0.1c0.2,0-0.2-0.1-0.1-0.2C1.9,19.1,1.8,19,1.8,19.1z"/>
	<path d="M3.8,20.1C3.9,20,4,19.8,3.9,19.7l-0.1,0C3.9,19.9,3.7,19.9,3.8,20.1z"/>
	<path d="M2.3,19.1c0.1-0.1,0.1,0.1,0.2,0l-0.2-0.2C2.2,18.9,2.4,18.9,2.3,19.1C2.4,19,2.3,19,2.3,19.1z"/>
	<path d="M2.6,18.5l-0.2-0.1c0,0.2,0.1,0.1,0.2,0.3L2.6,18.5z"/>
	<path d="M2.7,18.3c0,0.2,0,0.2,0.1,0.4l0,0L2.7,18.3z"/>
	<path d="M5.4,18.3c0,0.1,0.2,0.1,0.1,0.1C5.4,18.2,5.3,18.2,5.4,18.3z"/>
	<path d="M4,16.9c0,0.1-0.2,0.2-0.1,0.3C3.9,17.2,4,17,4,16.9z"/>
	<path d="M5.9,14.6c0-0.1,0.1-0.2,0-0.3c0,0-0.1,0,0,0.1C5.9,14.4,5.9,14.5,5.9,14.6z"/>
	<path d="M6.6,14.1c0,0,0-0.1,0-0.1C6.6,14,6.5,14,6.6,14.1z"/>
	<path d="M12.8,12.3c0.2-0.1,0.2-0.1,0-0.2C12.7,12.2,12.9,12.2,12.8,12.3z"/>
	<polygon points="13.2,12 12.9,12 13,12 	"/>
	<path d="M13.8,11.4C13.9,11.5,13.9,11.5,13.8,11.4C13.9,11.5,13.9,11.4,13.8,11.4z"/>
	<path d="M13.9,11.6C13.9,11.6,13.9,11.5,13.9,11.6C13.9,11.5,13.8,11.5,13.9,11.6L13.9,11.6z"/>
	<path d="M14.2,11.4l-0.1-0.1l-0.4,0.1C13.7,11.5,13.9,11.2,14.2,11.4z"/>
	<path d="M12.9,10.4c0.1,0.3,0.9,0,1,0.3c0.1-0.1,0.3,0.1,0.5,0.1c0-0.1-0.7-0.2-0.4-0.3C13.4,10.3,13.4,10.7,12.9,10.4
		z"/>
	<path d="M13.6,10.8c0,0-0.2,0.1,0,0.1c0,0,0,0,0,0c0,0,0.1,0,0.1,0C13.9,10.9,13.7,10.8,13.6,10.8z"/>
	<polygon points="13.5,10.3 13.5,10.2 13.3,10.2 	"/>
	<path d="M13.1,10l0.3,0C13.3,10,13.1,9.9,13.1,10z"/>
	<path d="M12.7,9.4c-0.1-0.1-0.5,0-0.2,0.1l0,0C12.5,9.5,12.5,9.4,12.7,9.4z"/>
	<path d="M11,8.8c0,0,0.1,0,0.2,0C11.1,8.8,11,8.8,11,8.8L11,8.8z"/>
	<path d="M10.6,9.7c-0.1-0.1,0-0.1-0.1-0.2C10.4,9.7,10.6,9.6,10.6,9.7z"/>
	<path d="M11,8.5c0.1,0,0.1,0,0.1,0.1C11.2,8.4,11.1,8.4,11,8.5z"/>
	<path d="M10.7,8.1c0,0.1-0.2,0.3-0.3,0.4c0.2,0,0.5-0.2,0.3,0l0.3-0.2c-0.1-0.1-0.2,0.2-0.3,0.1c0-0.1,0.1-0.1,0.1-0.2
		C10.9,8.1,10.8,8.1,10.7,8.1z"/>
	<path d="M10.5,9.1c-0.2,0.2,0.1,0,0.2,0.1l0-0.1C10.6,9.1,10.5,9.1,10.5,9.1z"/>
	<polygon points="9.9,8 10.1,8 9.9,8 	"/>
	<polygon points="10.1,7.9 10.1,7.8 9.9,7.9 	"/>
	<polygon points="10,7.7 10,7.7 10.1,7.8 	"/>
	<path d="M9.8,7.6c-0.1,0-0.1,0-0.1-0.1l0,0.1C9.7,7.6,9.7,7.7,9.8,7.6z"/>
	<path d="M7,9.1C7,9.1,7.1,9,7.1,9L7,9.1C7,9.1,7,9.1,7,9.1z"/>
	<path d="M6.8,8.8c0.1,0.1,0.2,0,0.3,0c0-0.1-0.2,0-0.2-0.1l0.1,0L6.8,8.8z"/>
	<path d="M5.1,7.1C5.2,7,5.2,7,5.3,6.9C5.2,6.9,5.1,6.8,5,6.8c0,0.1-0.2,0.1-0.2,0.2L5,7L4.9,7C5,7.2,5.1,6.9,5.1,7.1z"
		/>
	<path d="M0.9,1.8C1,1.8,1,1.7,1,1.7C0.9,1.7,0.9,1.8,0.9,1.8z"/>
	<path d="M0.4,1.9l-0.3,0C-0.1,2.1,0.1,1.9,0.4,1.9z"/>
	<polygon points="1.9,1.8 1.6,1.9 1.5,2 	"/>
	<path d="M3.4,2.4c0.6,0.1,0-0.1,0.3-0.2l-0.4,0C2.9,2,3.6,1.9,3.3,1.8c-0.5,0-0.2,0.4-0.9,0.3C2.5,2.3,3.5,2.1,3.4,2.4
		z"/>
	<path d="M30.1,0.8C30.1,0.8,30.2,0.8,30.1,0.8C30.2,0.8,30.1,0.8,30.1,0.8z"/>
	<path d="M37.3,0.6c0.1,0,0.2,0,0.3,0.1c0,0-0.1,0-0.1-0.1L37.3,0.6z"/>
	<path d="M25.3,1.2c0.1,0,0.1,0.1,0.3,0.1C25.5,1.2,25.4,1.2,25.3,1.2z"/>
	<path d="M10.4,2.4c0.1,0,0.2,0,0.3,0C10.7,2.4,10.6,2.3,10.4,2.4z"/>
	<path d="M13,2.4C13,2.4,13,2.4,13,2.4C13,2.4,13,2.4,13,2.4z"/>
	<path d="M14.7,2.4C14.7,2.4,14.7,2.4,14.7,2.4C14.7,2.4,14.7,2.4,14.7,2.4z"/>
	<path d="M10.8,2.4C11,2.5,11,2.8,11.3,2.5l-0.1,0c0.2,0.1,0.4-0.1,0.6-0.1c0,0,0-0.1-0.1-0.1c-0.1,0-0.2,0-0.4,0
		C11.1,2.1,11,2.3,10.8,2.4z"/>
	<path d="M30.1,0.8C30.1,0.8,29.9,0.8,30.1,0.8L30.1,0.8z"/>
	<path d="M19.5,1C19.5,1,19.5,1,19.5,1C19.5,1,19.5,1,19.5,1z"/>
	<path d="M28.3,1.1c-0.1,0-0.1,0-0.2,0C28.1,1.1,28.2,1.1,28.3,1.1z"/>
	<path d="M4.7,1.3l0.2,0L4.5,1.2C3.9,1.3,3.9,1.4,3.8,1.6c0.5-0.2,0.8-0.1,1.4-0.1L4.7,1.3z"/>
	<path d="M5.3,2.5L4.9,2.5c0.1,0,0.2,0.2,0.3,0.2L5.3,2.5z"/>
	<path d="M11.4,3l-0.5-0.1C10.7,3,11.3,3.1,11.4,3z"/>
	<path d="M9.5,1.2C9.1,1.3,9.4,1.1,9.1,1.1L8.8,1.3C9.1,1.4,9.4,1.3,9.5,1.2z"/>
	<path d="M12.8,3c0.2-0.2,0.5,0.1,0.6-0.1C13.3,2.9,12.8,2.8,12.8,3z"/>
	<path d="M12.5,1C12.3,0.8,12,1,11.7,1C12,1,12.3,1.2,12.5,1z"/>
	<path d="M14.6,2.5c0.3,0.1,0.8,0.2,0.8,0.4c0.2-0.1,0.5-0.3,0.2-0.5c0,0.1-0.2,0.1-0.5,0.1c0.1,0,0.1-0.1,0.2-0.1
		C14.9,2.5,14.9,2.4,14.6,2.5z"/>
	<path d="M13,1l-0.1,0.2C13.2,1.3,12.8,1,13.2,1c-0.3-0.1-0.4-0.2-0.8-0.2C12.5,0.9,12.6,1.1,13,1z"/>
	<path d="M16.9,2.7c-0.4,0.1-0.9,0.1-1.1,0.3c0.5,0,1-0.1,1.3-0.2L16.9,2.7z"/>
	<path d="M14.6,1.3l0.1-0.2c-0.4,0,0,0.1-0.1,0.1c-0.1,0-0.3-0.1-0.4,0C14.6,1.2,14.2,1.4,14.6,1.3z"/>
	<path d="M15.8,1.1L16.3,1L16,0.7C15.4,0.8,15.9,0.8,15.8,1.1z"/>
	<path d="M17.2,0.9c-0.4,0.1-0.5,0.1-0.8,0.3l0.1,0L17.2,0.9z"/>
	<path d="M25.2,2.7c-0.1,0.1,0.5,0.2,0.2,0.1C25.4,2.7,25,2.5,25.2,2.7z"/>
	<path d="M24.8,0.7c-0.4,0-1.2,0-1.2,0.1C23.8,0.9,24.5,0.8,24.8,0.7z"/>
	<path d="M37.3,0.2c-0.2,0-0.6,0-0.7,0.1c0.3-0.1,0.6-0.1,1-0.2C37.4,0.2,37.3,0.1,37.3,0.2z"/>
	<path d="M40.2,0.3c-0.2,0.1-0.4,0-0.3,0.1C40,0.4,40.3,0.3,40.2,0.3z"/>
	<path d="M45.4,21.7c0-1-0.1-2.1-0.1-3.1c-0.2-5.3-0.7-10.9-0.8-16.4h-42l8,10l-9.7,9.5H45.4z"/>
</svg>